<?xml version="1.0" encoding="utf-8"?>
<!-- Generator: Adobe Illustrator 27.5.0, SVG Export Plug-In . SVG Version: 6.00 Build 0)  -->
<svg version="1.1" id="Camada_1" xmlns="http://www.w3.org/2000/svg" xmlns:xlink="http://www.w3.org/1999/xlink" x="0px" y="0px"
	 viewBox="0 0 215.2 48.3" style="enable-background:new 0 0 215.2 48.3;" xml:space="preserve">
<style type="text/css">
	.st0{fill:#502382;}
	.st1{fill:#B1B3B3;}
</style>
<g>
	<g>
		<path class="st0" d="M154.4,5.4h-8.7V1.1h22.2v4.3h-8.7v21.3h-4.8V5.4z"/>
		<path class="st0" d="M13.9,0C6.2,0,0,6.2,0,13.9s6.2,13.9,13.9,13.9s13.9-6.2,13.9-13.9C27.9,6.2,21.6,0,13.9,0z M13.9,20.1
			c-3.4,0-6.2-2.8-6.2-6.2s2.8-6.2,6.2-6.2s6.2,2.8,6.2,6.2S17.4,20.1,13.9,20.1z"/>
		<path class="st0" d="M61.6,0.5h-5.7v4.9h5.7l0,0l0,0c4.7,0,8.6,3.8,8.6,8.6c0,4.7-3.8,8.6-8.6,8.6l0,0l0,0h-5.7v4.9h5.7
			c7.4,0,13.4-6,13.4-13.4C75,6.5,69,0.5,61.6,0.5z"/>
		<polygon class="st0" points="124.8,26.8 114,1.2 109.3,1.2 98.5,26.8 103.5,26.8 111.6,7 119.8,26.8 		"/>
		<polygon class="st0" points="215.1,26.8 204.3,1.2 199.6,1.2 188.8,26.8 193.8,26.8 201.9,7 210.1,26.8 		"/>
		<rect x="51" y="11.5" class="st0" width="4.9" height="4.9"/>
	</g>
	<g>
		<g>
			<path class="st1" d="M47.8,37.2h1l2.3,7.9h-1.3l-0.5-2h-3.8l-1.1,2h-1.3L47.8,37.2z M49,42.2l-1-3.6l0,0l-2,3.6H49z"/>
			<path class="st1" d="M52.3,39.8h1l-0.1,0.8l0,0c0.2-0.3,0.4-0.5,0.8-0.7c0.3-0.2,0.7-0.3,1.1-0.3c0.3,0,0.5,0,0.7,0.1
				s0.4,0.2,0.6,0.4c0.2,0.2,0.3,0.4,0.3,0.6c0.1,0.3,0.1,0.6,0,0.9L56.2,45h-1l0.4-3.1c0-0.2,0-0.5,0-0.6c0-0.2-0.1-0.3-0.2-0.4
				s-0.2-0.2-0.4-0.2c-0.1,0-0.3-0.1-0.4-0.1c-0.2,0-0.4,0-0.6,0.1s-0.4,0.2-0.5,0.3c-0.2,0.1-0.3,0.3-0.4,0.6s-0.2,0.5-0.2,0.8
				l-0.4,2.7h-1L52.3,39.8z"/>
			<path class="st1" d="M64.3,37.2h1l2.3,7.9h-1.3l-0.5-2H62l-1.1,2h-1.3L64.3,37.2z M65.5,42.2l-1-3.6l0,0l-2,3.6H65.5z"/>
			<path class="st1" d="M69.3,36.7h1l-1.2,8.4h-1L69.3,36.7z"/>
			<path class="st1" d="M71.3,39.8h1l-0.7,5.3h-1L71.3,39.8z M71.4,37.9c0-0.2,0.1-0.4,0.3-0.5c0.2-0.1,0.3-0.2,0.5-0.2
				s0.4,0.1,0.5,0.2s0.2,0.3,0.1,0.5s-0.1,0.4-0.3,0.5c-0.2,0.1-0.3,0.2-0.5,0.2s-0.4-0.1-0.5-0.2C71.4,38.3,71.3,38.1,71.4,37.9z"
				/>
			<path class="st1" d="M78.3,45.1c-0.1,0.4-0.2,0.8-0.4,1.1c-0.2,0.3-0.4,0.6-0.7,0.9c-0.3,0.2-0.6,0.4-1,0.6
				c-0.4,0.1-0.8,0.2-1.2,0.2c-0.5,0-1-0.1-1.4-0.2s-0.8-0.4-1.1-0.7l0.8-0.8c0.2,0.3,0.5,0.5,0.8,0.6s0.6,0.2,1,0.2
				s0.7-0.1,0.9-0.2c0.3-0.1,0.5-0.2,0.6-0.4c0.2-0.2,0.3-0.4,0.4-0.6s0.2-0.4,0.2-0.7l0.1-0.8l0,0c-0.2,0.3-0.5,0.6-0.9,0.7
				c-0.4,0.2-0.7,0.2-1.1,0.2s-0.7-0.1-1.1-0.2c-0.3-0.1-0.6-0.3-0.8-0.6c-0.2-0.2-0.4-0.5-0.4-0.9c-0.1-0.3-0.1-0.7,0-1.1
				s0.2-0.8,0.3-1.1c0.2-0.3,0.4-0.6,0.7-0.9c0.3-0.3,0.6-0.5,0.9-0.6s0.7-0.2,1.1-0.2s0.7,0.1,1,0.2c0.3,0.2,0.6,0.4,0.7,0.7l0,0
				l0.1-0.8h1L78.3,45.1z M76.2,40.6c-0.3,0-0.5,0-0.7,0.1s-0.4,0.2-0.6,0.4c-0.2,0.2-0.3,0.4-0.4,0.6s-0.2,0.5-0.2,0.7
				c-0.1,0.5,0,1,0.3,1.3s0.7,0.5,1.2,0.5s1-0.2,1.3-0.5c0.4-0.3,0.6-0.8,0.7-1.3c0-0.3,0-0.5,0-0.7s-0.1-0.4-0.3-0.6
				s-0.3-0.3-0.5-0.4C76.7,40.7,76.4,40.6,76.2,40.6z"/>
			<path class="st1" d="M80.3,39.8h1l-0.1,0.8l0,0c0.2-0.3,0.4-0.5,0.8-0.7c0.3-0.2,0.7-0.3,1.1-0.3c0.3,0,0.5,0,0.7,0.1
				s0.4,0.2,0.6,0.4c0.2,0.2,0.3,0.4,0.3,0.6c0.1,0.3,0.1,0.6,0,0.9L84.2,45h-1l0.4-3.1c0-0.2,0-0.5,0-0.6c0-0.2-0.1-0.3-0.2-0.4
				s-0.2-0.2-0.4-0.2c-0.1,0-0.3-0.1-0.4-0.1c-0.2,0-0.4,0-0.6,0.1s-0.4,0.2-0.5,0.3c-0.2,0.1-0.3,0.3-0.4,0.6s-0.2,0.5-0.2,0.8
				l-0.4,2.7h-1L80.3,39.8z"/>
			<path class="st1" d="M86.6,42.9c0,0.2,0,0.4,0.1,0.6s0.2,0.4,0.3,0.5s0.3,0.2,0.5,0.3c0.2,0.1,0.4,0.1,0.7,0.1
				c0.3,0,0.6-0.1,0.8-0.2c0.3-0.1,0.5-0.3,0.7-0.6l0.7,0.6c-0.7,0.7-1.5,1.1-2.5,1.1c-0.4,0-0.8-0.1-1.1-0.2
				c-0.3-0.1-0.6-0.3-0.8-0.6c-0.2-0.2-0.3-0.5-0.4-0.9s-0.1-0.7,0-1.1s0.2-0.8,0.4-1.1c0.2-0.3,0.4-0.6,0.7-0.9
				c0.3-0.2,0.6-0.4,0.9-0.6s0.7-0.2,1.1-0.2c0.5,0,0.9,0.1,1.2,0.2s0.5,0.4,0.7,0.6s0.3,0.6,0.3,0.9s0,0.7,0,1l-0.1,0.4L86.6,42.9
				L86.6,42.9z M90,42c0-0.2,0-0.4,0-0.6s-0.1-0.3-0.2-0.5c-0.1-0.1-0.2-0.2-0.4-0.3c-0.2-0.1-0.4-0.1-0.7-0.1c-0.2,0-0.5,0-0.7,0.1
				s-0.4,0.2-0.6,0.4c-0.2,0.1-0.3,0.3-0.4,0.5s-0.2,0.4-0.2,0.5H90z"/>
			<path class="st1" d="M96.9,45.1h-1l0.1-0.8l0,0c-0.2,0.3-0.5,0.5-0.9,0.7s-0.7,0.2-1.1,0.2c-0.4,0-0.8-0.1-1.1-0.2
				s-0.6-0.3-0.8-0.6c-0.2-0.3-0.3-0.5-0.4-0.9c-0.1-0.3-0.1-0.7,0-1.1s0.2-0.8,0.3-1.1c0.2-0.3,0.4-0.6,0.7-0.9
				c0.3-0.2,0.6-0.4,0.9-0.6c0.4-0.1,0.7-0.2,1.1-0.2c0.4,0,0.7,0.1,1,0.2s0.5,0.4,0.7,0.7l0,0l0.5-3.9h1L96.9,45.1z M94.2,44.3
				c0.3,0,0.5,0,0.7-0.1s0.4-0.2,0.6-0.4s0.3-0.4,0.4-0.6c0.1-0.2,0.2-0.5,0.2-0.7c0-0.3,0-0.5,0-0.7s-0.1-0.4-0.3-0.6
				s-0.3-0.3-0.5-0.4s-0.4-0.1-0.7-0.1s-0.5,0-0.7,0.1s-0.4,0.2-0.6,0.4c-0.2,0.2-0.3,0.4-0.4,0.6s-0.2,0.5-0.2,0.7
				c0,0.3,0,0.5,0,0.7s0.1,0.4,0.3,0.6c0.1,0.2,0.3,0.3,0.5,0.4S94,44.3,94.2,44.3z"/>
			<path class="st1" d="M102.2,37.2h1h1.7c0.6,0,1,0.1,1.4,0.2s0.7,0.3,1,0.5s0.5,0.5,0.7,0.7c0.2,0.3,0.3,0.6,0.4,0.8
				c0.1,0.3,0.1,0.6,0.1,0.9s0,0.6,0,0.8c-0.1,0.5-0.2,1-0.5,1.5s-0.6,0.9-1,1.3s-0.9,0.7-1.5,0.9s-1.2,0.3-1.9,0.3h-1.5H101
				L102.2,37.2z M102.3,44.1h1.4c0.5,0,0.9-0.1,1.3-0.2s0.8-0.3,1.1-0.6s0.6-0.6,0.9-0.9c0.2-0.4,0.4-0.8,0.4-1.3c0-0.2,0-0.4,0-0.6
				s0-0.4-0.1-0.6s-0.1-0.4-0.3-0.6c-0.1-0.2-0.3-0.4-0.5-0.6s-0.5-0.3-0.8-0.4s-0.7-0.2-1.1-0.2H103L102.3,44.1z"/>
			<path class="st1" d="M109.8,40.5c0.3-0.3,0.7-0.5,1.1-0.6c0.4-0.1,0.8-0.2,1.1-0.2c0.4,0,0.7,0,1,0.1s0.5,0.2,0.6,0.4
				c0.2,0.2,0.3,0.4,0.3,0.6c0.1,0.2,0.1,0.4,0,0.7l-0.4,2.7c0,0.2-0.1,0.4-0.1,0.5s0,0.3,0,0.4h-0.9c0-0.1,0-0.3,0-0.4
				s0-0.3,0.1-0.4l0,0c-0.3,0.3-0.6,0.6-0.9,0.7c-0.3,0.1-0.7,0.2-1.1,0.2c-0.2,0-0.5,0-0.7-0.1s-0.4-0.2-0.5-0.3
				c-0.1-0.1-0.3-0.3-0.3-0.5s-0.1-0.4-0.1-0.7c0-0.3,0.2-0.6,0.3-0.9c0.2-0.2,0.4-0.4,0.7-0.6c0.3-0.1,0.6-0.2,1-0.3
				s0.7-0.1,1.1-0.1h0.7v-0.2c0-0.1,0-0.3,0-0.4s-0.1-0.3-0.2-0.4c-0.1-0.1-0.2-0.2-0.4-0.3c-0.1-0.1-0.3-0.1-0.5-0.1
				s-0.4,0-0.5,0.1c-0.2,0-0.3,0.1-0.4,0.1c-0.1,0.1-0.2,0.1-0.3,0.2s-0.2,0.1-0.3,0.2L109.8,40.5z M112.3,42.6c-0.2,0-0.5,0-0.7,0
				s-0.5,0.1-0.7,0.2s-0.4,0.2-0.5,0.3c-0.1,0.1-0.2,0.3-0.3,0.5c0,0.3,0,0.5,0.2,0.7c0.2,0.1,0.5,0.2,0.8,0.2s0.5,0,0.7-0.1
				s0.4-0.2,0.5-0.4c0.1-0.1,0.3-0.3,0.3-0.5c0.1-0.2,0.1-0.4,0.2-0.5l0.1-0.3L112.3,42.6L112.3,42.6z"/>
			<path class="st1" d="M118.2,40.7h-1.4l-0.3,2.4c0,0.1,0,0.3-0.1,0.4c0,0.1,0,0.3,0,0.4s0.1,0.2,0.2,0.3c0.1,0.1,0.2,0.1,0.4,0.1
				c0.1,0,0.2,0,0.4,0s0.3-0.1,0.4-0.1l-0.1,0.9c-0.1,0-0.1,0.1-0.2,0.1c-0.1,0-0.2,0-0.3,0s-0.2,0-0.2,0c-0.1,0-0.1,0-0.2,0
				c-0.4,0-0.7-0.1-0.9-0.2s-0.3-0.2-0.4-0.4c-0.1-0.2-0.1-0.4-0.1-0.6s0-0.4,0.1-0.6l0.4-2.8h-1.2l0.1-0.9h1.2l0.2-1.5h1l-0.2,1.5
				h1.4L118.2,40.7z"/>
			<path class="st1" d="M119.3,40.5c0.3-0.3,0.7-0.5,1.1-0.6c0.4-0.1,0.8-0.2,1.1-0.2c0.4,0,0.7,0,1,0.1s0.5,0.2,0.6,0.4
				c0.2,0.2,0.3,0.4,0.3,0.6c0.1,0.2,0.1,0.4,0,0.7l-0.4,2.7c0,0.2-0.1,0.4-0.1,0.5s0,0.3,0,0.4H122c0-0.1,0-0.3,0-0.4
				s0-0.3,0.1-0.4l0,0c-0.3,0.3-0.6,0.6-0.9,0.7c-0.3,0.1-0.7,0.2-1.1,0.2c-0.2,0-0.5,0-0.7-0.1s-0.4-0.2-0.5-0.3
				c-0.1-0.1-0.3-0.3-0.3-0.5s-0.1-0.4-0.1-0.7c0-0.3,0.2-0.6,0.3-0.9c0.2-0.2,0.4-0.4,0.7-0.6c0.3-0.1,0.6-0.2,1-0.3
				s0.7-0.1,1.1-0.1h0.7v-0.2c0-0.1,0-0.3,0-0.4s-0.1-0.3-0.2-0.4c-0.1-0.1-0.2-0.2-0.4-0.3c-0.1-0.1-0.3-0.1-0.5-0.1
				s-0.4,0-0.5,0.1c-0.2,0-0.3,0.1-0.4,0.1c-0.1,0.1-0.2,0.1-0.3,0.2s-0.2,0.1-0.3,0.2L119.3,40.5z M121.8,42.6c-0.2,0-0.5,0-0.7,0
				s-0.5,0.1-0.7,0.2s-0.4,0.2-0.5,0.3c-0.1,0.1-0.2,0.3-0.3,0.5c0,0.3,0,0.5,0.2,0.7c0.2,0.1,0.5,0.2,0.8,0.2s0.5,0,0.7-0.1
				s0.4-0.2,0.5-0.4c0.1-0.1,0.3-0.3,0.3-0.5c0.1-0.2,0.1-0.4,0.2-0.5l0.1-0.3L121.8,42.6L121.8,42.6z"/>
			<path class="st1" d="M133.7,38.9c-0.2-0.3-0.4-0.5-0.8-0.7s-0.7-0.2-1-0.2c-0.4,0-0.9,0.1-1.2,0.3c-0.4,0.2-0.7,0.4-1,0.7
				c-0.3,0.3-0.5,0.6-0.7,1s-0.3,0.8-0.4,1.3c-0.1,0.4,0,0.8,0,1.2c0.1,0.4,0.2,0.7,0.4,1s0.5,0.5,0.8,0.7s0.7,0.2,1.2,0.2
				s0.9-0.1,1.2-0.3c0.4-0.2,0.7-0.4,1-0.8L134,44c-0.1,0.1-0.2,0.2-0.4,0.4c-0.2,0.2-0.4,0.3-0.7,0.5s-0.6,0.3-0.9,0.4
				c-0.4,0.1-0.8,0.2-1.2,0.2c-0.6,0-1.2-0.1-1.6-0.4c-0.5-0.2-0.9-0.6-1.2-0.9c-0.3-0.4-0.5-0.8-0.6-1.3s-0.1-1-0.1-1.5
				c0.1-0.6,0.3-1.2,0.5-1.7s0.6-1,1-1.3c0.4-0.4,0.9-0.7,1.4-0.9c0.5-0.2,1.1-0.3,1.7-0.3c0.5,0,1,0.1,1.5,0.3s0.8,0.5,1.1,0.9
				L133.7,38.9z"/>
			<path class="st1" d="M135.8,42.9c0,0.2,0,0.4,0.1,0.6s0.2,0.4,0.3,0.5s0.3,0.2,0.5,0.3c0.2,0.1,0.4,0.1,0.7,0.1s0.6-0.1,0.8-0.2
				c0.3-0.1,0.5-0.3,0.7-0.6l0.7,0.6c-0.7,0.7-1.5,1.1-2.5,1.1c-0.4,0-0.8-0.1-1.1-0.2s-0.6-0.3-0.8-0.6c-0.2-0.2-0.3-0.5-0.4-0.9
				s-0.1-0.7,0-1.1s0.2-0.8,0.4-1.1c0.2-0.3,0.4-0.6,0.7-0.9c0.3-0.2,0.6-0.4,0.9-0.6s0.7-0.2,1.1-0.2c0.5,0,0.9,0.1,1.2,0.2
				s0.5,0.4,0.7,0.6s0.3,0.6,0.3,0.9s0,0.7,0,1l-0.1,0.4L135.8,42.9L135.8,42.9z M139.1,42c0-0.2,0-0.4,0-0.6s-0.1-0.3-0.2-0.5
				c-0.1-0.1-0.2-0.2-0.4-0.3c-0.2-0.1-0.4-0.1-0.7-0.1c-0.2,0-0.5,0-0.7,0.1s-0.4,0.2-0.6,0.4c-0.2,0.1-0.3,0.3-0.4,0.5
				c-0.1,0.2-0.2,0.4-0.2,0.5H139.1z"/>
			<path class="st1" d="M141.4,39.8h1l-0.1,0.8l0,0c0.2-0.3,0.4-0.5,0.8-0.7c0.3-0.2,0.7-0.3,1.1-0.3c0.3,0,0.5,0,0.7,0.1
				s0.4,0.2,0.6,0.4c0.2,0.2,0.3,0.4,0.3,0.6c0.1,0.3,0.1,0.6,0,0.9l-0.5,3.4h-1l0.4-3.1c0-0.2,0-0.5,0-0.6c0-0.2-0.1-0.3-0.2-0.4
				c-0.1-0.1-0.2-0.2-0.4-0.2c-0.1,0-0.3-0.1-0.4-0.1c-0.2,0-0.4,0-0.6,0.1c-0.2,0.1-0.4,0.2-0.5,0.3c-0.2,0.1-0.3,0.3-0.4,0.6
				s-0.2,0.5-0.2,0.8l-0.4,2.7h-1L141.4,39.8z"/>
			<path class="st1" d="M150.2,40.7h-1.4l-0.3,2.4c0,0.1,0,0.3-0.1,0.4c0,0.1,0,0.3,0,0.4s0.1,0.2,0.2,0.3c0.1,0.1,0.2,0.1,0.4,0.1
				c0.1,0,0.2,0,0.4,0s0.3-0.1,0.4-0.1l-0.1,0.9c-0.1,0-0.1,0.1-0.2,0.1c-0.1,0-0.2,0-0.3,0s-0.2,0-0.2,0c-0.1,0-0.1,0-0.2,0
				c-0.4,0-0.7-0.1-0.9-0.2s-0.3-0.2-0.4-0.4c-0.1-0.2-0.1-0.4-0.1-0.6s0-0.4,0.1-0.6l0.4-2.8h-1.2l0.1-0.9h1.2l0.2-1.5h1l-0.2,1.5
				h1.4L150.2,40.7z"/>
			<path class="st1" d="M151.7,42.9c0,0.2,0,0.4,0.1,0.6s0.2,0.4,0.3,0.5s0.3,0.2,0.5,0.3c0.2,0.1,0.4,0.1,0.7,0.1s0.6-0.1,0.8-0.2
				c0.3-0.1,0.5-0.3,0.7-0.6l0.7,0.6c-0.7,0.7-1.5,1.1-2.5,1.1c-0.4,0-0.8-0.1-1.1-0.2s-0.6-0.3-0.8-0.6c-0.2-0.2-0.3-0.5-0.4-0.9
				s-0.1-0.7,0-1.1s0.2-0.8,0.4-1.1c0.2-0.3,0.4-0.6,0.7-0.9c0.3-0.2,0.6-0.4,0.9-0.6s0.7-0.2,1.1-0.2c0.5,0,0.9,0.1,1.2,0.2
				s0.5,0.4,0.7,0.6s0.3,0.6,0.3,0.9s0,0.7,0,1l-0.1,0.4L151.7,42.9L151.7,42.9z M155,42c0-0.2,0-0.4,0-0.6s-0.1-0.3-0.2-0.5
				c-0.1-0.1-0.2-0.2-0.4-0.3c-0.2-0.1-0.4-0.1-0.7-0.1c-0.2,0-0.5,0-0.7,0.1s-0.4,0.2-0.6,0.4c-0.2,0.1-0.3,0.3-0.4,0.5
				c-0.1,0.2-0.2,0.4-0.2,0.5H155z"/>
			<path class="st1" d="M157.3,39.8h1l-0.1,0.8l0,0c0.2-0.3,0.4-0.5,0.7-0.7s0.6-0.3,1-0.3c0.2,0,0.3,0,0.4,0.1l-0.2,1.1
				c-0.1,0-0.2,0-0.2-0.1s-0.2,0-0.2,0c-0.5,0-0.9,0.1-1.2,0.4s-0.5,0.7-0.6,1.3l-0.4,2.7h-1L157.3,39.8z"/>
			<path class="st1" d="M163.9,41.2c-0.1-0.1-0.2-0.3-0.4-0.4s-0.4-0.2-0.6-0.2c-0.2,0-0.5,0-0.6,0.2S162,41,162,41.2
				c0,0.2,0,0.3,0.1,0.4s0.2,0.2,0.3,0.2c0.1,0.1,0.3,0.1,0.4,0.1c0.1,0,0.3,0.1,0.4,0.1c0.2,0.1,0.4,0.1,0.6,0.2
				c0.2,0.1,0.3,0.2,0.5,0.3s0.2,0.3,0.3,0.4c0.1,0.2,0.1,0.4,0,0.6c0,0.3-0.1,0.6-0.3,0.8c-0.2,0.2-0.3,0.4-0.6,0.5
				c-0.2,0.1-0.5,0.2-0.7,0.3s-0.5,0.1-0.8,0.1c-0.4,0-0.8-0.1-1.1-0.2s-0.6-0.4-0.8-0.7l0.8-0.6c0.1,0.2,0.3,0.3,0.5,0.4
				s0.4,0.2,0.7,0.2s0.5-0.1,0.8-0.2c0.2-0.1,0.4-0.3,0.4-0.5c0-0.1,0-0.3-0.1-0.4s-0.2-0.2-0.3-0.2s-0.3-0.1-0.4-0.1
				c-0.1,0-0.3-0.1-0.4-0.1c-0.2-0.1-0.4-0.1-0.6-0.2s-0.3-0.2-0.5-0.3c-0.1-0.1-0.2-0.3-0.3-0.4c-0.1-0.2-0.1-0.4,0-0.6
				c0-0.3,0.1-0.5,0.3-0.7c0.1-0.2,0.3-0.4,0.5-0.5s0.4-0.2,0.7-0.3c0.3-0.1,0.5-0.1,0.7-0.1c0.4,0,0.7,0.1,1,0.2s0.5,0.4,0.7,0.7
				L163.9,41.2z"/>
			<path class="st1" d="M174.8,38.9c-0.2-0.3-0.4-0.5-0.8-0.7s-0.7-0.2-1-0.2c-0.4,0-0.9,0.1-1.2,0.3c-0.4,0.2-0.7,0.4-1,0.7
				c-0.3,0.3-0.5,0.6-0.7,1s-0.3,0.8-0.4,1.3c-0.1,0.4,0,0.8,0,1.2c0.1,0.4,0.2,0.7,0.4,1s0.5,0.5,0.8,0.7s0.7,0.2,1.2,0.2
				s0.9-0.1,1.2-0.3c0.4-0.2,0.7-0.4,1-0.8l0.8,0.7c-0.1,0.1-0.2,0.2-0.4,0.4c-0.2,0.2-0.4,0.3-0.7,0.5s-0.6,0.3-0.9,0.4
				c-0.4,0.1-0.8,0.2-1.2,0.2c-0.6,0-1.2-0.1-1.6-0.4c-0.5-0.2-0.9-0.6-1.2-0.9c-0.3-0.4-0.5-0.8-0.6-1.3s-0.1-1-0.1-1.5
				c0.1-0.6,0.3-1.2,0.5-1.7s0.6-1,1-1.3c0.4-0.4,0.9-0.7,1.4-0.9c0.5-0.2,1.1-0.3,1.7-0.3c0.5,0,1,0.1,1.5,0.3s0.8,0.5,1.1,0.9
				L174.8,38.9z"/>
			<path class="st1" d="M175.9,42.5c0.1-0.4,0.2-0.7,0.4-1.1c0.2-0.3,0.4-0.6,0.7-0.9s0.6-0.5,1-0.6s0.7-0.2,1.1-0.2
				s0.8,0.1,1.1,0.2s0.6,0.3,0.8,0.6c0.2,0.3,0.4,0.5,0.5,0.9c0.1,0.3,0.1,0.7,0.1,1.1c-0.1,0.4-0.2,0.8-0.4,1.1
				c-0.2,0.3-0.4,0.6-0.7,0.9c-0.3,0.2-0.6,0.4-1,0.6s-0.7,0.2-1.1,0.2s-0.8-0.1-1.1-0.2s-0.6-0.3-0.8-0.6c-0.2-0.2-0.4-0.5-0.5-0.9
				C175.8,43.2,175.8,42.9,175.9,42.5z M177,42.5c0,0.3,0,0.5,0,0.7s0.1,0.4,0.3,0.6c0.1,0.2,0.3,0.3,0.5,0.4s0.4,0.1,0.7,0.1
				s0.5,0,0.7-0.1s0.4-0.2,0.6-0.4s0.3-0.4,0.4-0.6c0.1-0.2,0.2-0.5,0.2-0.7c0-0.3,0-0.5,0-0.7s-0.1-0.4-0.3-0.6s-0.3-0.3-0.5-0.4
				s-0.4-0.1-0.7-0.1s-0.5,0-0.7,0.1s-0.4,0.2-0.6,0.4c-0.2,0.2-0.3,0.4-0.4,0.6S177,42.2,177,42.5z"/>
			<path class="st1" d="M182.9,39.8h0.9l-0.1,0.8l0,0c0-0.1,0.1-0.2,0.2-0.3c0.1-0.1,0.2-0.2,0.4-0.3c0.2-0.1,0.3-0.2,0.6-0.3
				c0.2-0.1,0.4-0.1,0.7-0.1c0.8,0,1.3,0.3,1.5,1c0.2-0.3,0.5-0.6,0.8-0.7s0.7-0.2,1-0.2c0.4,0,0.7,0.1,1,0.2
				c0.2,0.1,0.4,0.3,0.5,0.5s0.2,0.5,0.2,0.7c0,0.3,0,0.6,0,0.9l-0.4,3.1h-1l0.4-3c0-0.2,0-0.4,0-0.6s0-0.4-0.1-0.5
				s-0.2-0.3-0.3-0.3c-0.1-0.1-0.3-0.1-0.6-0.1c-0.5,0-0.9,0.1-1.1,0.4c-0.2,0.3-0.4,0.7-0.5,1.2l-0.4,2.9h-1l0.4-2.8
				c0-0.3,0.1-0.5,0.1-0.7s0-0.4-0.1-0.5c-0.1-0.2-0.2-0.3-0.3-0.4s-0.3-0.1-0.6-0.1c-0.2,0-0.4,0-0.5,0.1c-0.2,0.1-0.3,0.2-0.5,0.3
				c-0.1,0.1-0.3,0.3-0.4,0.5c-0.1,0.2-0.2,0.5-0.2,0.8l-0.4,2.7h-1L182.9,39.8z"/>
			<path class="st1" d="M192.2,39.8h1l-0.1,0.8l0,0c0.2-0.3,0.5-0.5,0.9-0.7s0.7-0.2,1.1-0.2c0.4,0,0.8,0.1,1.1,0.2s0.6,0.3,0.8,0.6
				c0.2,0.3,0.3,0.5,0.4,0.9s0.1,0.7,0,1.1s-0.2,0.8-0.4,1.1c-0.2,0.3-0.4,0.6-0.7,0.9c-0.3,0.2-0.6,0.4-0.9,0.6s-0.7,0.2-1.1,0.2
				c-0.4,0-0.7-0.1-1-0.2s-0.5-0.4-0.7-0.7l0,0l-0.5,3.9h-1L192.2,39.8z M194.9,40.6c-0.3,0-0.5,0-0.7,0.1s-0.4,0.2-0.6,0.4
				c-0.2,0.2-0.3,0.4-0.4,0.6s-0.2,0.5-0.2,0.7c0,0.3,0,0.5,0,0.7s0.1,0.4,0.3,0.6c0.1,0.2,0.3,0.3,0.5,0.4s0.4,0.1,0.7,0.1
				s0.5,0,0.7-0.1s0.4-0.2,0.6-0.4s0.3-0.4,0.4-0.6c0.1-0.2,0.2-0.5,0.2-0.7c0-0.3,0-0.5,0-0.7s-0.1-0.4-0.3-0.6s-0.3-0.3-0.5-0.4
				C195.4,40.7,195.1,40.6,194.9,40.6z"/>
			<path class="st1" d="M198.8,40.5c0.3-0.3,0.7-0.5,1.1-0.6c0.4-0.1,0.8-0.2,1.1-0.2c0.4,0,0.7,0,1,0.1s0.5,0.2,0.6,0.4
				c0.2,0.2,0.3,0.4,0.3,0.6c0.1,0.2,0.1,0.4,0,0.7l-0.4,2.7c0,0.2-0.1,0.4-0.1,0.5s0,0.3,0,0.4h-0.9c0-0.1,0-0.3,0-0.4
				s0-0.3,0.1-0.4l0,0c-0.3,0.3-0.6,0.6-0.9,0.7c-0.3,0.1-0.7,0.2-1.1,0.2c-0.2,0-0.5,0-0.7-0.1s-0.4-0.2-0.5-0.3
				c-0.1-0.1-0.3-0.3-0.3-0.5s-0.1-0.4-0.1-0.7c0-0.3,0.2-0.6,0.3-0.9c0.2-0.2,0.4-0.4,0.7-0.6c0.3-0.1,0.6-0.2,1-0.3
				s0.7-0.1,1.1-0.1h0.7v-0.2c0-0.1,0-0.3,0-0.4s-0.1-0.3-0.2-0.4c-0.1-0.1-0.2-0.2-0.4-0.3c-0.1-0.1-0.3-0.1-0.5-0.1
				s-0.4,0-0.5,0.1c-0.2,0-0.3,0.1-0.4,0.1c-0.1,0.1-0.2,0.1-0.3,0.2s-0.2,0.1-0.3,0.2L198.8,40.5z M201.3,42.6c-0.2,0-0.5,0-0.7,0
				s-0.5,0.1-0.7,0.2s-0.4,0.2-0.5,0.3c-0.1,0.1-0.2,0.3-0.3,0.5c0,0.3,0,0.5,0.2,0.7c0.2,0.1,0.5,0.2,0.8,0.2s0.5,0,0.7-0.1
				s0.4-0.2,0.5-0.4c0.1-0.1,0.3-0.3,0.3-0.5c0.1-0.2,0.1-0.4,0.2-0.5l0.1-0.3L201.3,42.6L201.3,42.6z"/>
			<path class="st1" d="M204.4,39.8h1l-0.1,0.8l0,0c0.2-0.3,0.4-0.5,0.8-0.7c0.3-0.2,0.7-0.3,1.1-0.3c0.3,0,0.5,0,0.7,0.1
				s0.4,0.2,0.6,0.4c0.2,0.2,0.3,0.4,0.3,0.6c0.1,0.3,0.1,0.6,0,0.9l-0.5,3.4h-1l0.4-3.1c0-0.2,0-0.5,0-0.6c0-0.2-0.1-0.3-0.2-0.4
				c-0.1-0.1-0.2-0.2-0.4-0.2c-0.1,0-0.3-0.1-0.4-0.1c-0.2,0-0.4,0-0.6,0.1c-0.2,0.1-0.4,0.2-0.5,0.3c-0.2,0.1-0.3,0.3-0.4,0.6
				s-0.2,0.5-0.2,0.8l-0.4,2.7h-1L204.4,39.8z"/>
			<path class="st1" d="M209.8,39.8h1.2l1,4.1l0,0l2.1-4.1h1.1l-3.4,6.4c-0.1,0.2-0.2,0.4-0.4,0.6c-0.1,0.2-0.3,0.4-0.4,0.5
				c-0.2,0.1-0.3,0.2-0.5,0.3s-0.4,0.1-0.7,0.1c-0.1,0-0.3,0-0.4,0c-0.1,0-0.3-0.1-0.4-0.1l0.2-0.9c0.2,0.1,0.4,0.1,0.6,0.1
				c0.2,0,0.3,0,0.4-0.1s0.2-0.1,0.3-0.2s0.2-0.2,0.2-0.3s0.1-0.2,0.2-0.4l0.4-0.8L209.8,39.8z"/>
		</g>
	</g>
</g>
</svg>
